<?xml version="1.0" encoding="utf-8"?>
<!-- Generator: Adobe Illustrator 20.1.0, SVG Export Plug-In . SVG Version: 6.00 Build 0)  -->
<svg version="1.1" id="Capa_1" xmlns="http://www.w3.org/2000/svg" xmlns:xlink="http://www.w3.org/1999/xlink" x="0px" y="0px"
	 viewBox="0 0 201.9 202" style="enable-background:new 0 0 201.9 202;" xml:space="preserve">
<path d="M100.9,0.6C45.5,0.6,0.5,45.7,0.5,101c0,55.4,45,100.4,100.4,100.4c4.1,0,7.5-3.4,7.5-7.5s-3.4-7.5-7.5-7.5
	c-47.1,0-85.4-38.3-85.4-85.4c0-47.1,38.3-85.4,85.4-85.4s85.4,38.3,85.4,85.4v23.2c0,8.7-7.1,15.7-15.7,15.7
	c-8.7,0-15.7-7.1-15.7-15.7V101c0-29.8-24.2-54-54-54c-29.8,0-54,24.2-54,54c0,29.8,24.2,54,54,54c16.5,0,31.3-7.5,41.2-19.2
	c4.6,11.2,15.6,19.2,28.5,19.2c16.9,0,30.7-13.8,30.7-30.7V101C201.3,45.7,156.3,0.6,100.9,0.6z M100.9,140c-21.5,0-39-17.5-39-39
	c0-21.5,17.5-39,39-39s39,17.5,39,39C139.9,122.5,122.4,140,100.9,140z"/>
</svg>
